o Cylinder 1
v -2.2660186569917182 0.5989967367162913 2.500736617807225
v -2.266018656991718 1.7944582483282296 1.8105365846193582
v -2.266018656991718 1.7944582483282296 0.430136518243625
v -2.2660186569917182 0.5989967367162914 -0.2600635149442416
v -2.2660186569917182 -0.5964647748956473 0.430136518243625
v -2.2660186569917182 -0.5964647748956473 1.8105365846193582
v -2.2660186569917182 0.598996736716291 2.500736617807225
v -1.5700186293351626 0.5989967367162911 2.500736617807225
v -1.5700186293351623 1.7944582483282296 1.8105365846193582
v -1.5700186293351623 1.7944582483282296 0.430136518243625
v -1.5700186293351626 0.5989967367162913 -0.2600635149442416
v -1.5700186293351628 -0.5964647748956473 0.430136518243625
v -1.5700186293351628 -0.5964647748956473 1.8105365846193582
v -1.5700186293351626 0.5989967367162907 2.500736617807225
v -2.2660186569917182 0.5989967367162913 1.1203365514314916
v -2.2660186569917182 0.5989967367162913 1.1203365514314916
v -2.2660186569917182 0.5989967367162913 1.1203365514314916
v -2.2660186569917182 0.5989967367162913 1.1203365514314916
v -2.2660186569917182 0.5989967367162913 1.1203365514314916
v -2.2660186569917182 0.5989967367162913 1.1203365514314916
v -2.2660186569917182 0.5989967367162913 2.500736617807225
v -2.266018656991718 1.7944582483282296 1.8105365846193582
v -2.266018656991718 1.7944582483282296 0.430136518243625
v -2.2660186569917182 0.5989967367162914 -0.2600635149442416
v -2.2660186569917182 -0.5964647748956473 0.430136518243625
v -2.2660186569917182 -0.5964647748956473 1.8105365846193582
v -2.2660186569917182 0.598996736716291 2.500736617807225
v -1.5700186293351626 0.5989967367162911 1.1203365514314916
v -1.5700186293351626 0.5989967367162911 1.1203365514314916
v -1.5700186293351626 0.5989967367162911 1.1203365514314916
v -1.5700186293351626 0.5989967367162911 1.1203365514314916
v -1.5700186293351626 0.5989967367162911 1.1203365514314916
v -1.5700186293351626 0.5989967367162911 1.1203365514314916
v -1.5700186293351626 0.5989967367162911 2.500736617807225
v -1.5700186293351623 1.7944582483282296 1.8105365846193582
v -1.5700186293351623 1.7944582483282296 0.430136518243625
v -1.5700186293351626 0.5989967367162913 -0.2600635149442416
v -1.5700186293351628 -0.5964647748956473 0.430136518243625
v -1.5700186293351628 -0.5964647748956473 1.8105365846193582
v -1.5700186293351626 0.5989967367162907 2.500736617807225
vt 0 1
vt 0.1666666716337204 1
vt 0.3333333432674408 1
vt 0.5 1
vt 0.6666666865348816 1
vt 0.8333333134651184 1
vt 1 1
vt 0 0
vt 0.1666666716337204 0
vt 0.3333333432674408 0
vt 0.5 0
vt 0.6666666865348816 0
vt 0.8333333134651184 0
vt 1 0
vt 0.5 0.5
vt 0.5 0.5
vt 0.5 0.5
vt 0.5 0.5
vt 0.5 0.5
vt 0.5 0.5
vt 1 0.5
vt 0.75 0.9330127239227295
vt 0.25 0.9330127239227295
vt 0 0.5
vt 0.25 0.0669872984290123
vt 0.75 0.0669872984290123
vt 1 0.5
vt 0.5 0.5
vt 0.5 0.5
vt 0.5 0.5
vt 0.5 0.5
vt 0.5 0.5
vt 0.5 0.5
vt 1 0.5
vt 0.75 0.0669872984290123
vt 0.25 0.0669872984290123
vt 0 0.5
vt 0.25 0.9330127239227295
vt 0.75 0.9330127239227295
vt 1 0.5
vn 0 0 1.7241379310344818
vn 3.315452848051353e-16 1.4931472211048522 0.8620689655172409
vn 3.315452848051353e-16 1.4931472211048522 -0.8620689655172409
vn 4.68838321646477e-32 2.1114600906640826e-16 -1.7241379310344818
vn -3.315452848051353e-16 -1.4931472211048522 -0.8620689655172409
vn -3.315452848051353e-16 -1.4931472211048522 0.8620689655172409
vn -9.37676643292954e-32 -4.222920181328165e-16 1.7241379310344818
vn 0 0 1.7241379310344818
vn 3.315452848051353e-16 1.4931472211048522 0.8620689655172409
vn 3.315452848051353e-16 1.4931472211048522 -0.8620689655172409
vn 4.68838321646477e-32 2.1114600906640826e-16 -1.7241379310344818
vn -3.315452848051353e-16 -1.4931472211048522 -0.8620689655172409
vn -3.315452848051353e-16 -1.4931472211048522 0.8620689655172409
vn -9.37676643292954e-32 -4.222920181328165e-16 1.7241379310344818
vn -1.7241379310344818 3.828355257328124e-16 0
vn -1.7241379310344818 3.828355257328124e-16 0
vn -1.7241379310344818 3.828355257328124e-16 0
vn -1.7241379310344818 3.828355257328124e-16 0
vn -1.7241379310344818 3.828355257328124e-16 0
vn -1.7241379310344818 3.828355257328124e-16 0
vn -1.7241379310344818 3.828355257328124e-16 0
vn -1.7241379310344818 3.828355257328124e-16 0
vn -1.7241379310344818 3.828355257328124e-16 0
vn -1.7241379310344818 3.828355257328124e-16 0
vn -1.7241379310344818 3.828355257328124e-16 0
vn -1.7241379310344818 3.828355257328124e-16 0
vn -1.7241379310344818 3.828355257328124e-16 0
vn 1.7241379310344818 -3.828355257328124e-16 0
vn 1.7241379310344818 -3.828355257328124e-16 0
vn 1.7241379310344818 -3.828355257328124e-16 0
vn 1.7241379310344818 -3.828355257328124e-16 0
vn 1.7241379310344818 -3.828355257328124e-16 0
vn 1.7241379310344818 -3.828355257328124e-16 0
vn 1.7241379310344818 -3.828355257328124e-16 0
vn 1.7241379310344818 -3.828355257328124e-16 0
vn 1.7241379310344818 -3.828355257328124e-16 0
vn 1.7241379310344818 -3.828355257328124e-16 0
vn 1.7241379310344818 -3.828355257328124e-16 0
vn 1.7241379310344818 -3.828355257328124e-16 0
vn 1.7241379310344818 -3.828355257328124e-16 0
f 1/1/1 8/8/8 2/2/2
f 8/8/8 9/9/9 2/2/2
f 2/2/2 9/9/9 3/3/3
f 9/9/9 10/10/10 3/3/3
f 3/3/3 10/10/10 4/4/4
f 10/10/10 11/11/11 4/4/4
f 4/4/4 11/11/11 5/5/5
f 11/11/11 12/12/12 5/5/5
f 5/5/5 12/12/12 6/6/6
f 12/12/12 13/13/13 6/6/6
f 6/6/6 13/13/13 7/7/7
f 13/13/13 14/14/14 7/7/7
f 21/21/21 22/22/22 15/15/15
f 22/22/22 23/23/23 16/16/16
f 23/23/23 24/24/24 17/17/17
f 24/24/24 25/25/25 18/18/18
f 25/25/25 26/26/26 19/19/19
f 26/26/26 27/27/27 20/20/20
f 35/35/35 34/34/34 28/28/28
f 36/36/36 35/35/35 29/29/29
f 37/37/37 36/36/36 30/30/30
f 38/38/38 37/37/37 31/31/31
f 39/39/39 38/38/38 32/32/32
f 40/40/40 39/39/39 33/33/33
